<?xml version="1.0" encoding="UTF-8" standalone="no"?>
<!-- Created with Inkscape (http://www.inkscape.org/) -->

<svg
   xmlns:osb="http://www.openswatchbook.org/uri/2009/osb"
   xmlns:dc="http://purl.org/dc/elements/1.1/"
   xmlns:cc="http://creativecommons.org/ns#"
   xmlns:rdf="http://www.w3.org/1999/02/22-rdf-syntax-ns#"
   xmlns:svg="http://www.w3.org/2000/svg"
   xmlns="http://www.w3.org/2000/svg"
   xmlns:xlink="http://www.w3.org/1999/xlink"
   xmlns:sodipodi="http://sodipodi.sourceforge.net/DTD/sodipodi-0.dtd"
   xmlns:inkscape="http://www.inkscape.org/namespaces/inkscape"
   width="30"
   height="30"
   viewBox="0 0 28.124997 28.124994"
   id="svg3871"
   version="1.1"
   inkscape:version="0.92.2 5c3e80d, 2017-08-06"
   sodipodi:docname="logo.svg">
  <defs
     id="defs3873">
    <linearGradient
       id="linearGradient6413"
       osb:paint="solid">
      <stop
         style="stop-color:#014cb1;stop-opacity:1;"
         offset="0"
         id="stop6415" />
    </linearGradient>
    <linearGradient
       id="linearGradient4970"
       osb:paint="gradient">
      <stop
         style="stop-color:#014cb1;stop-opacity:1"
         offset="0"
         id="stop4972" />
      <stop
         style="stop-color:#6b6b6b;stop-opacity:0;"
         offset="1"
         id="stop4974" />
    </linearGradient>
    <linearGradient
       inkscape:collect="always"
       xlink:href="#linearGradient4970"
       id="linearGradient6463"
       x1="700.27075"
       y1="90.511948"
       x2="700.27075"
       y2="57.791946"
       gradientUnits="userSpaceOnUse" />
  </defs>
  <sodipodi:namedview
     id="base"
     pagecolor="#ffffff"
     bordercolor="#666666"
     borderopacity="1.0"
     inkscape:pageopacity="0.0"
     inkscape:pageshadow="2"
     inkscape:zoom="5.5541104"
     inkscape:cx="30.258603"
     inkscape:cy="17.430635"
     inkscape:document-units="px"
     inkscape:current-layer="layer1"
     showgrid="false"
     inkscape:snap-global="true"
     inkscape:snap-bbox="true"
     inkscape:snap-bbox-edge-midpoints="true"
     inkscape:snap-nodes="true"
     fit-margin-top="0"
     fit-margin-left="0"
     fit-margin-right="0"
     fit-margin-bottom="0"
     inkscape:window-width="1366"
     inkscape:window-height="704"
     inkscape:window-x="0"
     inkscape:window-y="27"
     inkscape:window-maximized="1"
     showguides="false"
     inkscape:bbox-nodes="true"
     showborder="false"
     units="px" />
  <metadata
     id="metadata3876">
    <rdf:RDF>
      <cc:Work
         rdf:about="">
        <dc:format>image/svg+xml</dc:format>
        <dc:type
           rdf:resource="http://purl.org/dc/dcmitype/StillImage" />
        <dc:title />
      </cc:Work>
    </rdf:RDF>
  </metadata>
  <g
     inkscape:label="Layer 1"
     inkscape:groupmode="layer"
     id="layer1"
     style="display:inline"
     transform="translate(-532.81171,978.05651)">
    <flowRoot
       xml:space="preserve"
       id="flowRoot29184"
       style="font-style:normal;font-weight:normal;line-height:0.01%;font-family:sans-serif;text-align:center;letter-spacing:0px;word-spacing:0px;text-anchor:middle;fill:#000000;fill-opacity:1;stroke:none;stroke-width:1px;stroke-linecap:butt;stroke-linejoin:miter;stroke-opacity:1"
       transform="translate(0,-506.69291)"><flowRegion
         id="flowRegion29186"><rect
           id="rect29188"
           width="173.74623"
           height="359.61432"
           x="1478.8633"
           y="876.19208" /></flowRegion><flowPara
         id="flowPara29190"
         style="font-size:40px;line-height:1.25"> </flowPara></flowRoot>    <flowRoot
       xml:space="preserve"
       id="flowRoot29192"
       style="font-style:normal;font-weight:normal;line-height:0.01%;font-family:sans-serif;text-align:center;letter-spacing:0px;word-spacing:0px;text-anchor:middle;fill:#000000;fill-opacity:1;stroke:none;stroke-width:1px;stroke-linecap:butt;stroke-linejoin:miter;stroke-opacity:1"
       transform="translate(0,-506.69291)"><flowRegion
         id="flowRegion29194"><rect
           id="rect29196"
           width="1381.8887"
           height="682.8631"
           x="339.41125"
           y="702.4458" /></flowRegion><flowPara
         id="flowPara29198"
         style="font-size:40px;line-height:1.25"> </flowPara></flowRoot>    <flowRoot
       xml:space="preserve"
       id="flowRoot4654"
       style="font-style:normal;font-weight:normal;line-height:0.01%;font-family:sans-serif;text-align:center;letter-spacing:0px;word-spacing:0px;text-anchor:middle;fill:#000000;fill-opacity:1;stroke:none;stroke-width:1px;stroke-linecap:butt;stroke-linejoin:miter;stroke-opacity:1"
       transform="translate(63.922264,-453.86244)"><flowRegion
         id="flowRegion4656"><rect
           id="rect4658"
           width="375.77676"
           height="135.36044"
           x="430.32498"
           y="210.09132" /></flowRegion><flowPara
         id="flowPara4660"
         style="font-size:40px;line-height:1.25"> </flowPara></flowRoot>    <flowRoot
       xml:space="preserve"
       id="flowRoot4662"
       style="font-style:normal;font-weight:normal;line-height:0.01%;font-family:sans-serif;text-align:center;letter-spacing:0px;word-spacing:0px;text-anchor:middle;fill:#000000;fill-opacity:1;stroke:none;stroke-width:1px;stroke-linecap:butt;stroke-linejoin:miter;stroke-opacity:1"
       transform="translate(63.922264,-453.86244)"><flowRegion
         id="flowRegion4664"><rect
           id="rect4666"
           width="400.02042"
           height="94.954338"
           x="832.36572"
           y="109.07607" /></flowRegion><flowPara
         id="flowPara4668"
         style="font-size:40px;line-height:1.25"> </flowPara></flowRoot>    <flowRoot
       xml:space="preserve"
       id="flowRoot4670"
       style="font-style:normal;font-weight:normal;line-height:0.01%;font-family:sans-serif;text-align:center;letter-spacing:0px;word-spacing:0px;text-anchor:middle;fill:#000000;fill-opacity:1;stroke:none;stroke-width:1px;stroke-linecap:butt;stroke-linejoin:miter;stroke-opacity:1"
       transform="translate(63.922264,-453.86244)"><flowRegion
         id="flowRegion4672"><rect
           id="rect4674"
           width="464.67017"
           height="204.05081"
           x="828.32507"
           y="88.873009" /></flowRegion><flowPara
         id="flowPara4676"
         style="font-size:40px;line-height:1.25"> </flowPara></flowRoot>    <g
       transform="matrix(0.0975,0,0,0.0975,526.57929,-944.67993)"
       style="display:inline"
       id="layer1-0"
       inkscape:label="Layer 1">
      <path
         inkscape:connector-curvature="0"
         id="path29155"
         d="M 208.153,-342.32394 A 144.23076,144.23076 0 0 0 63.922264,-198.0932 144.23076,144.23076 0 0 0 208.153,-53.862454 144.23076,144.23076 0 0 0 352.38375,-198.0932 144.23076,144.23076 0 0 0 208.153,-342.32394 Z m 0,21.15384 a 67.307683,67.307683 0 0 1 67.30769,67.30769 67.307683,67.307683 0 0 1 -67.30769,67.30768 67.307683,67.307683 0 0 1 -67.30767,-67.30768 67.307683,67.307683 0 0 1 67.30767,-67.30769 z m 115.21558,102.91844 a 115.38462,115.38462 0 0 1 0.16904,4.77385 115.38462,115.38462 0 0 1 -115.3846,115.384596 115.38462,115.38462 0 0 1 -115.384588,-115.384596 115.38462,115.38462 0 0 1 0.232887,-4.6725 126.92309,126.92309 0 0 0 115.151701,73.90325 126.92309,126.92309 0 0 0 115.21559,-74.0046 z"
         style="opacity:1;fill:#014cb1;fill-opacity:1;stroke:none;stroke-width:14.42307568;stroke-linecap:round;stroke-linejoin:round;stroke-miterlimit:4;stroke-dasharray:none;stroke-opacity:1" />
      <g
         transform="translate(0,-506.69291)"
         style="font-style:normal;font-weight:normal;font-size:40px;line-height:125%;font-family:sans-serif;text-align:center;letter-spacing:0px;word-spacing:0px;text-anchor:middle;fill:#000000;fill-opacity:1;stroke:none;stroke-width:1px;stroke-linecap:butt;stroke-linejoin:miter;stroke-opacity:1"
         id="flowRoot29184-8" />
      <g
         transform="translate(0,-506.69291)"
         style="font-style:normal;font-weight:normal;font-size:40px;line-height:125%;font-family:sans-serif;text-align:center;letter-spacing:0px;word-spacing:0px;text-anchor:middle;fill:#000000;fill-opacity:1;stroke:none;stroke-width:1px;stroke-linecap:butt;stroke-linejoin:miter;stroke-opacity:1"
         id="flowRoot29192-2" />
    </g>
    <flowRoot
       xml:space="preserve"
       id="flowRoot4276"
       style="font-style:normal;font-weight:normal;line-height:0.01%;font-family:sans-serif;text-align:center;letter-spacing:0px;word-spacing:0px;text-anchor:middle;fill:#000000;fill-opacity:1;stroke:none;stroke-width:1px;stroke-linecap:butt;stroke-linejoin:miter;stroke-opacity:1"><flowRegion
         id="flowRegion4278"><rect
           id="rect4280"
           width="137.48213"
           height="244.89006"
           x="1233.043"
           y="961.86707" /></flowRegion><flowPara
         id="flowPara4282"
         style="font-size:40px;line-height:1.25"> </flowPara></flowRoot>    <path
       style="fill:#ffffff;stroke-width:0.18004684"
       d="M 12.437854,15.605528 C 11.044956,15.021297 10.022005,14.170356 9.2189634,12.927895 8.3664081,11.608826 8.0824643,10.432297 8.1858131,8.6470083 8.3274722,6.1999311 9.7779645,4.0630687 12.056328,2.9449737 c 0.945838,-0.4641655 1.221256,-0.5122455 2.934304,-0.5122455 1.727413,0 1.983481,0.045656 2.968475,0.5292689 1.37307,0.6741511 2.579861,1.8809423 3.254012,3.2540126 0.483613,0.9849937 0.529269,1.2410613 0.529269,2.9684748 0,1.6756695 -0.055,2.0078415 -0.483997,2.9232025 -0.61876,1.320259 -2.025902,2.726887 -3.344557,3.343335 -0.852146,0.398364 -1.331772,0.491565 -2.743155,0.533052 -1.466729,0.04311 -1.856121,-0.01083 -2.732825,-0.378546 z"
       id="path4535"
       inkscape:connector-curvature="0"
       transform="matrix(0.93749985,0,0,0.93749985,532.81171,-978.05651)" />
    <path
       style="fill:#ffffff;stroke-width:0.18004684"
       d="M 13.208517,25.187938 C 8.6167717,24.497915 4.6338109,20.856041 3.462593,16.276623 3.2673142,15.51309 3.1075407,14.557678 3.1075407,14.153485 v -0.734896 l 0.755737,1.168802 c 5.2935317,8.186835 17.1295913,8.043728 22.4611493,-0.271572 l 0.577207,-0.900234 -0.10433,1.29558 c -0.171502,2.12977 -1.072743,4.300354 -2.543003,6.124672 -2.66175,3.302733 -6.904559,4.974423 -11.045784,4.352101 z"
       id="path4537"
       inkscape:connector-curvature="0"
       transform="matrix(0.93749985,0,0,0.93749985,532.81171,-978.05651)" />
  </g>
</svg>
